<svg width="41" height="42" viewBox="0 0 41 42" fill="none" xmlns="http://www.w3.org/2000/svg">
<path d="M37.1445 10.6194C35.9197 11.1477 34.5868 11.528 33.2139 11.6761C34.6393 10.8293 35.7067 9.49144 36.2159 7.91362C34.8783 8.70929 33.4131 9.26723 31.8851 9.56269C31.2464 8.87995 30.474 8.33605 29.616 7.96488C28.758 7.59371 27.8327 7.40322 26.8978 7.40529C23.1154 7.40529 20.0734 10.4713 20.0734 14.2337C20.0734 14.7621 20.1374 15.2904 20.2415 15.7987C14.5778 15.5025 9.52656 12.7968 6.16838 8.6541C5.55648 9.69924 5.23583 10.8893 5.23978 12.1003C5.23978 14.4699 6.44456 16.5592 8.28175 17.788C7.19906 17.7454 6.14173 17.4478 5.19575 16.9195V17.0035C5.19575 20.3217 7.54127 23.0715 10.6673 23.7039C10.0804 23.8563 9.47655 23.9343 8.87013 23.936C8.42584 23.936 8.00557 23.892 7.5813 23.832C8.44586 26.5377 10.9635 28.503 13.9614 28.567C11.6159 30.4042 8.67801 31.4849 5.48794 31.4849C4.91557 31.4849 4.38722 31.4649 3.83887 31.4009C6.86483 33.3421 10.4552 34.4628 14.3217 34.4628C26.8738 34.4628 33.7423 24.0641 33.7423 15.0382C33.7423 14.7421 33.7423 14.4459 33.7223 14.1497C35.0511 13.177 36.2159 11.9723 37.1445 10.6194Z" fill="#11B5E4"/>
</svg>
